External Loads File
version=1
nRows=46
nColumns=13
Range=5.000000e-03-10 seconds
endheader
time 	forceRightX 	forceRightY 	forceRightZ 	pointRightX 	pointRightY 	pointRightZ 	forceLeftX 	forceLeftY 	forceLeftZ 	pointLeftX 	pointLeftY 	pointLeftZ 		
0.005000 68.717411 204.513543 -0.000000 0.122049 0.245482 -0.142550 -162.114987 102.173472 -0.000000 0.417960 0.402805 -0.370810
0.010000 69.337337 205.011163 -0.000000 0.121105 0.248717 -0.142648 -165.900683 104.576190 -0.000000 0.419413 0.399284 -0.370690
0.015000 69.794687 205.674689 -0.000000 0.120199 0.251929 -0.142653 -169.403159 107.034235 -0.000000 0.420711 0.395762 -0.370671
0.020000 70.019239 206.575563 -0.000000 0.119331 0.255076 -0.142595 -172.428937 109.374778 -0.000000 0.421678 0.392278 -0.370708
0.025000 70.140280 207.606436 -0.000000 0.118659 0.258109 -0.142441 -174.823805 111.596427 -0.000000 0.422782 0.388762 -0.370599
0.030000 70.167481 208.592290 -0.000000 0.118019 0.261268 -0.142470 -176.608125 113.672773 -0.000000 0.423730 0.385414 -0.370548
0.035000 70.195581 209.277763 -0.000000 0.117455 0.264457 -0.142380 -177.808088 115.726490 -0.000000 0.424580 0.381992 -0.370103
0.040000 70.064440 209.518410 -0.000000 0.116919 0.267455 -0.142214 -178.591978 117.688173 -0.000000 0.425279 0.378550 -0.370049
0.045000 69.992240 209.123130 -0.000000 0.116522 0.270711 -0.142109 -178.907083 119.796738 -0.000000 0.425866 0.375160 -0.369924
0.050000 69.719260 208.158342 -0.000000 0.116195 0.273705 -0.142051 -178.970360 121.864294 -0.000000 0.426370 0.371776 -0.369857
0.055000 69.361842 206.657265 -0.000000 0.115939 0.276656 -0.141974 -178.802114 123.992555 -0.000000 0.426755 0.368452 -0.369744
0.060000 69.051656 204.715992 -0.000000 0.115765 0.279697 -0.141928 -178.425114 126.263593 -0.000000 0.427080 0.365210 -0.369671
0.065000 68.678722 202.541504 -0.000000 0.115632 0.282589 -0.141870 -178.010069 128.540530 -0.000000 0.427285 0.362081 -0.369393
0.070000 68.432483 200.243158 -0.000000 0.115459 0.285400 -0.141789 -177.528341 130.958922 -0.000000 0.427392 0.358923 -0.369393
0.075000 68.222563 198.015676 -0.000000 0.115313 0.288115 -0.141710 -177.102716 133.416246 -0.000000 0.427382 0.355920 -0.369413
0.080000 68.200691 195.941951 -0.000000 0.115374 0.290840 -0.141782 -176.671595 136.029084 -0.000000 0.427278 0.352979 -0.369326
0.085000 68.263247 194.147177 -0.000000 0.115322 0.293398 -0.141735 -176.328526 138.702723 -0.000000 0.427116 0.350224 -0.369370
0.090000 68.446827 192.669694 -0.000000 0.115372 0.295821 -0.141694 -176.064588 141.491610 -0.000000 0.426888 0.347611 -0.369393
0.095000 68.769556 191.530359 -0.000000 0.115697 0.298136 -0.141659 -175.873885 144.452476 -0.000000 0.426543 0.345106 -0.369316
0.100000 69.179981 190.754643 -0.000000 0.115775 0.300320 -0.141610 -175.784266 147.593583 -0.000000 0.426138 0.342835 -0.369249
0.105000 69.715291 190.322601 -0.000000 0.115843 0.302360 -0.141574 -175.734033 151.009750 -0.000000 0.425712 0.340630 -0.369345
0.110000 70.146669 190.311871 -0.000000 0.115941 0.304205 -0.141552 -175.866334 154.531125 -0.000000 0.425128 0.338752 -0.369361
0.115000 70.683961 190.641792 -0.000000 0.116028 0.305915 -0.141566 -175.992650 158.351282 -0.000000 0.424468 0.336918 -0.369809
0.120000 71.222253 191.341696 -0.000000 0.116065 0.307437 -0.141531 -176.209508 162.317538 -0.000000 0.423914 0.335303 -0.369769
0.125000 71.923457 192.327764 -0.000000 0.116164 0.308913 -0.141541 -176.418035 166.469382 -0.000000 0.423348 0.333825 -0.369799
0.130000 72.652831 193.604372 -0.000000 0.116184 0.310070 -0.141574 -176.775008 170.546318 -0.000000 0.422925 0.332503 -0.369442
0.135000 73.642457 195.013283 -0.000000 0.116215 0.311290 -0.141579 -177.100074 174.635409 -0.000000 0.422397 0.331323 -0.369529
0.140000 74.625773 196.564802 -0.000000 0.116198 0.312200 -0.141573 -177.616427 178.408124 -0.000000 0.421847 0.330289 -0.369553
0.145000 75.849069 198.072004 -0.000000 0.116177 0.313242 -0.141628 -178.037936 182.047551 -0.000000 0.421387 0.329369 -0.369585
0.150000 76.962022 199.587992 -0.000000 0.116091 0.313999 -0.141669 -178.576704 185.233737 -0.000000 0.420933 0.328587 -0.369647
0.155000 78.054892 201.017399 -0.000000 0.115996 0.314604 -0.141728 -179.026723 188.060825 -0.000000 0.420513 0.327838 -0.369650
0.160000 79.115250 202.319475 -0.000000 0.115921 0.315278 -0.141776 -179.286830 190.527030 -0.000000 0.420163 0.327294 -0.369672
0.165000 80.014658 203.512887 -0.000000 0.115898 0.315785 -0.141782 -179.404851 192.513803 -0.000000 0.419847 0.326883 -0.369719
0.170000 80.727826 204.588770 -0.000000 0.115851 0.316081 -0.141797 -179.385641 193.990536 -0.000000 0.419548 0.326608 -0.369764
0.175000 81.265614 205.529861 -0.000000 0.115774 0.316222 -0.141818 -179.229718 194.984685 -0.000000 0.419285 0.326509 -0.369815
0.180000 81.638251 206.321197 -0.000000 0.115671 0.316250 -0.141855 -178.936489 195.569043 -0.000000 0.419033 0.326569 -0.369834
0.185000 81.792367 206.977370 -0.000000 0.115570 0.316152 -0.141896 -178.555961 195.793532 -0.000000 0.418827 0.326781 -0.369853
0.190000 81.721958 207.497421 -0.000000 0.115451 0.315900 -0.141944 -178.087408 195.744586 -0.000000 0.418669 0.327054 -0.369843
0.195000 81.337812 207.909203 -0.000000 0.115339 0.315562 -0.142061 -177.615141 195.403599 -0.000000 0.418558 0.327531 -0.369856
0.200000 80.546499 208.235282 -0.000000 0.115287 0.314946 -0.142053 -177.242573 194.713672 -0.000000 0.418478 0.328121 -0.369874
0.205000 79.449100 208.424429 -0.000000 0.115267 0.314250 -0.142074 -176.897638 193.755958 -0.000000 0.418399 0.328866 -0.369894
0.210000 78.265211 208.398330 -0.000000 0.115189 0.313618 -0.142036 -176.406308 192.683581 -0.000000 0.418369 0.329635 -0.369875
0.215000 76.731418 208.284136 -0.000000 0.115185 0.312720 -0.142066 -176.066544 191.212278 -0.000000 0.418381 0.330557 -0.369899
0.220000 75.137793 208.013000 -0.000000 0.115103 0.311770 -0.142080 -175.690747 189.514333 -0.000000 0.418407 0.331539 -0.369894
0.225000 73.537125 207.604306 -0.000000 0.115038 0.310870 -0.142048 -175.319039 187.571112 -0.000000 0.418482 0.332695 -0.369911
0.230000 71.858801 207.118498 -0.000000 0.114927 0.309641 -0.142099 -175.093428 185.268880 -0.000000 0.418578 0.333827 -0.369903
